<svg width="317" height="45" viewBox="0 0 317 45" fill="none" xmlns="http://www.w3.org/2000/svg">
<path d="M25.8542 41.4999L0 30.104V26.3749L25.8542 13.4582V19.7082L8.04167 27.9582L25.8542 35.2707V41.4999Z" fill="url(#paint0_linear_105_369)"/>
<path d="M58.5049 40.5208L49.3382 10.6458H49.1091C49.4268 16.7292 49.5882 20.7865 49.5882 22.8125V40.5208H42.3799V2.4375H53.3799L62.3799 31.5625H62.5466L72.0882 2.4375H83.0882V40.5208H75.5674V22.5C75.5674 21.6562 75.5726 20.6771 75.5882 19.5625C75.6143 18.4531 75.734 15.5 75.9424 10.7083H75.7132L65.9007 40.5208H58.5049Z" fill="url(#paint1_linear_105_369)"/>
<path d="M110.536 40.5208L108.995 36.5625H108.786C107.453 38.2448 106.078 39.4115 104.661 40.0625C103.245 40.7135 101.396 41.0417 99.1196 41.0417C96.328 41.0417 94.1248 40.2448 92.5155 38.6458C90.9165 37.0521 90.1196 34.7708 90.1196 31.8125C90.1196 28.7292 91.1925 26.4583 93.3488 25C95.5155 23.5312 98.7759 22.7083 103.14 22.5417L108.182 22.3958V21.125C108.182 18.1667 106.672 16.6875 103.661 16.6875C101.328 16.6875 98.5884 17.3906 95.453 18.7917L92.828 13.4375C96.1717 11.6875 99.8905 10.8125 103.974 10.8125C107.875 10.8125 110.87 11.6667 112.953 13.375C115.036 15.0729 116.078 17.6562 116.078 21.125V40.5208H110.536ZM108.182 27.0208L105.12 27.125C102.797 27.1979 101.078 27.6146 99.953 28.375C98.828 29.1406 98.2655 30.3073 98.2655 31.875C98.2655 34.1146 99.5467 35.2292 102.12 35.2292C103.953 35.2292 105.417 34.7031 106.515 33.6458C107.625 32.5938 108.182 31.1823 108.182 29.4167V27.0208Z" fill="url(#paint2_linear_105_369)"/>
<path d="M140.497 10.8542C141.58 10.8542 142.476 10.9323 143.184 11.0834L142.58 18.5417C141.94 18.3646 141.163 18.2709 140.247 18.2709C137.705 18.2709 135.726 18.9271 134.309 20.2292C132.893 21.5365 132.184 23.3646 132.184 25.7084V40.5209H124.247V11.3959H130.268L131.434 16.2917H131.83C132.731 14.6667 133.945 13.3542 135.476 12.3542C137.018 11.3542 138.69 10.8542 140.497 10.8542Z" fill="url(#paint3_linear_105_369)"/>
<path d="M160.297 41.0417C151.224 41.0417 146.692 36.0729 146.692 26.125C146.692 21.1667 147.922 17.3854 150.38 14.7709C152.849 12.1615 156.385 10.8542 160.984 10.8542C164.359 10.8542 167.38 11.5156 170.047 12.8334L167.713 18.9792C166.463 18.4792 165.297 18.0729 164.213 17.75C163.14 17.4323 162.067 17.2709 160.984 17.2709C156.859 17.2709 154.797 20.2031 154.797 26.0625C154.797 31.7604 156.859 34.6042 160.984 34.6042C162.51 34.6042 163.927 34.4063 165.234 34C166.536 33.5834 167.843 32.9479 169.151 32.0834V38.875C167.859 39.6979 166.552 40.2604 165.234 40.5625C163.927 40.8802 162.281 41.0417 160.297 41.0417Z" fill="url(#paint4_linear_105_369)"/>
<path d="M187.945 16.5C186.263 16.5 184.945 17.0365 183.987 18.1042C183.028 19.1771 182.476 20.6875 182.341 22.6459H193.487C193.455 20.6875 192.945 19.1771 191.945 18.1042C190.955 17.0365 189.622 16.5 187.945 16.5ZM189.07 41.0417C184.372 41.0417 180.705 39.75 178.07 37.1667C175.429 34.5729 174.112 30.9063 174.112 26.1667C174.112 21.2917 175.325 17.5209 177.757 14.8542C180.2 12.1875 183.575 10.8542 187.882 10.8542C192.007 10.8542 195.216 12.0313 197.507 14.375C199.799 16.724 200.945 19.9584 200.945 24.0834V27.9375H182.153C182.247 30.2031 182.924 31.9688 184.174 33.2292C185.424 34.4948 187.174 35.125 189.424 35.125C191.174 35.125 192.825 34.9479 194.382 34.5834C195.95 34.224 197.591 33.6406 199.299 32.8334V38.9792C197.908 39.6771 196.424 40.1875 194.841 40.5209C193.257 40.8646 191.33 41.0417 189.07 41.0417Z" fill="url(#paint5_linear_105_369)"/>
<path d="M215.327 40.5208H207.39V0H215.327V40.5208Z" fill="url(#paint6_linear_105_369)"/>
<path d="M229.997 25.9167C229.997 28.7917 230.466 30.974 231.414 32.4584C232.357 33.9323 233.899 34.6667 236.039 34.6667C238.149 34.6667 239.669 33.9323 240.602 32.4584C241.529 30.9896 241.997 28.8073 241.997 25.9167C241.997 23.0313 241.524 20.8698 240.581 19.4375C239.649 17.9948 238.112 17.2709 235.977 17.2709C233.862 17.2709 232.336 17.9896 231.393 19.4167C230.461 20.849 229.997 23.0156 229.997 25.9167ZM250.122 25.9167C250.122 30.6563 248.872 34.3646 246.372 37.0417C243.872 39.7084 240.393 41.0417 235.935 41.0417C233.143 41.0417 230.675 40.4323 228.539 39.2084C226.399 37.9896 224.753 36.2292 223.602 33.9375C222.461 31.6459 221.893 28.974 221.893 25.9167C221.893 21.1563 223.133 17.4531 225.622 14.8125C228.107 12.1771 231.591 10.8542 236.081 10.8542C238.883 10.8542 241.352 11.4688 243.477 12.6875C245.612 13.8959 247.253 15.6406 248.393 17.9167C249.544 20.1979 250.122 22.8646 250.122 25.9167Z" fill="url(#paint7_linear_105_369)"/>
<path d="M288.396 6.45819L274.208 44.5415H267L281.188 6.45819H288.396Z" fill="url(#paint8_linear_105_369)"/>
<path d="M290.946 33.0207L308.758 25.7082L290.946 17.4582V11.2082L316.8 24.1249V27.854L290.946 39.2499V33.0207Z" fill="url(#paint9_linear_105_369)"/>
<defs>
<linearGradient id="paint0_linear_105_369" x1="-15.1707" y1="22.2709" x2="316.8" y2="22.2709" gradientUnits="userSpaceOnUse">
<stop offset="0.0260229" stop-color="#13B0F5"/>
<stop offset="1" stop-color="#E70FAA"/>
</linearGradient>
<linearGradient id="paint1_linear_105_369" x1="-15.1707" y1="22.2709" x2="316.8" y2="22.2709" gradientUnits="userSpaceOnUse">
<stop offset="0.0260229" stop-color="#13B0F5"/>
<stop offset="1" stop-color="#E70FAA"/>
</linearGradient>
<linearGradient id="paint2_linear_105_369" x1="-15.1707" y1="22.2709" x2="316.8" y2="22.2709" gradientUnits="userSpaceOnUse">
<stop offset="0.0260229" stop-color="#13B0F5"/>
<stop offset="1" stop-color="#E70FAA"/>
</linearGradient>
<linearGradient id="paint3_linear_105_369" x1="-15.1707" y1="22.2709" x2="316.8" y2="22.2709" gradientUnits="userSpaceOnUse">
<stop offset="0.0260229" stop-color="#13B0F5"/>
<stop offset="1" stop-color="#E70FAA"/>
</linearGradient>
<linearGradient id="paint4_linear_105_369" x1="-15.1707" y1="22.2709" x2="316.8" y2="22.2709" gradientUnits="userSpaceOnUse">
<stop offset="0.0260229" stop-color="#13B0F5"/>
<stop offset="1" stop-color="#E70FAA"/>
</linearGradient>
<linearGradient id="paint5_linear_105_369" x1="-15.1707" y1="22.2709" x2="316.8" y2="22.2709" gradientUnits="userSpaceOnUse">
<stop offset="0.0260229" stop-color="#13B0F5"/>
<stop offset="1" stop-color="#E70FAA"/>
</linearGradient>
<linearGradient id="paint6_linear_105_369" x1="-15.1707" y1="22.2709" x2="316.8" y2="22.2709" gradientUnits="userSpaceOnUse">
<stop offset="0.0260229" stop-color="#13B0F5"/>
<stop offset="1" stop-color="#E70FAA"/>
</linearGradient>
<linearGradient id="paint7_linear_105_369" x1="-15.1707" y1="22.2709" x2="316.8" y2="22.2709" gradientUnits="userSpaceOnUse">
<stop offset="0.0260229" stop-color="#13B0F5"/>
<stop offset="1" stop-color="#E70FAA"/>
</linearGradient>
<linearGradient id="paint8_linear_105_369" x1="-15.1707" y1="22.2709" x2="316.8" y2="22.2709" gradientUnits="userSpaceOnUse">
<stop offset="0.0260229" stop-color="#13B0F5"/>
<stop offset="1" stop-color="#E70FAA"/>
</linearGradient>
<linearGradient id="paint9_linear_105_369" x1="-15.1707" y1="22.2709" x2="316.8" y2="22.2709" gradientUnits="userSpaceOnUse">
<stop offset="0.0260229" stop-color="#13B0F5"/>
<stop offset="1" stop-color="#E70FAA"/>
</linearGradient>
</defs>
</svg>
